<svg width="24" height="25" viewBox="0 0 24 25" fill="none" xmlns="http://www.w3.org/2000/svg">
<path d="M3 6.375H5H21" stroke="#708090" stroke-width="2" stroke-linecap="round" stroke-linejoin="round"/>
<path d="M19 6.375V20.375C19 20.9054 18.7893 21.4141 18.4142 21.7892C18.0391 22.1643 17.5304 22.375 17 22.375H7C6.46957 22.375 5.96086 22.1643 5.58579 21.7892C5.21071 21.4141 5 20.9054 5 20.375V6.375M8 6.375V4.375C8 3.84457 8.21071 3.33586 8.58579 2.96079C8.96086 2.58571 9.46957 2.375 10 2.375H14C14.5304 2.375 15.0391 2.58571 15.4142 2.96079C15.7893 3.33586 16 3.84457 16 4.375V6.375" stroke="#708090" stroke-width="2" stroke-linecap="round" stroke-linejoin="round"/>
</svg>
